# xmcd
#
# Track frame offsets:
#       150
#       11217
#       22807
#       34305
#       44797
#       62464
#       74010
#       84662
#       94430
#       110935
#       125035
#       137087
#
# Disc length: 1979 seconds
#
# Revision: 3
# Processed by: cddbd v1.5.2PL0 Copyright (c) Steve Scherf et al.
# Submitted via: FreeDbEdit v0.1
# Normalized: r1:TDELIM( - )
#
DISCID=b807b90c
DTITLE=Various Artist - A Country Christmas
DYEAR=1900
DGENRE=Country
TTITLE0=Kitty Wells - Here Comes Santa Claus
TTITLE1=Gene Autry - Up on the House Top
TTITLE2=Kitty Wells - Old Kirs Kringle
TTITLE3=Eddy Raven - Silent Night
TTITLE4=Jeannie C. Riley - Joy to the World
TTITLE5=Donna Fargo - Jingle Bells
TTITLE6=Jeannie C. Riley - Away in a Manger
TTITLE7=Joe Stampley - Jingle Bell Rock
TTITLE8=Jack Greene - O Come All Ye Faithful
TTITLE9=Joe Stampley - White Christmas
TTITLE10=Jack Greene - Hark the Herald Angels Sing
TTITLE11=Skeeter Davis - Santa Claus Is Coming to Town
EXTD=ID3G:   2
EXTT0=
EXTT1=
EXTT2=
EXTT3=
EXTT4=
EXTT5=
EXTT6=
EXTT7=
EXTT8=
EXTT9=
EXTT10=
EXTT11=
PLAYORDER=
